{
    "asset" : {
        "generator" : "Khronos glTF Blender I/O v1.4.40",
        "version" : "2.0"
    },
    "scene" : 0,
    "scenes" : [
        {
            "name" : "Scene",
            "nodes" : [
                0,
                1,
                2,
                3,
                4,
                5,
                6,
                7,
                8
            ]
        }
    ],
    "nodes" : [
        {
            "name" : "Light",
            "rotation" : [
                0.16907575726509094,
                0.7558803558349609,
                -0.27217137813568115,
                0.570947527885437
            ],
            "translation" : [
                4.076245307922363,
                5.903861999511719,
                -1.0054539442062378
            ]
        },
        {
            "name" : "Camera",
            "rotation" : [
                0.483536034822464,
                0.33687159419059753,
                -0.20870360732078552,
                0.7804827094078064
            ],
            "translation" : [
                7.358891487121582,
                4.958309173583984,
                6.925790786743164
            ]
        },
        {
            "mesh" : 0,
            "name" : "1_1",
            "rotation" : [
                0.7071068286895752,
                0,
                0,
                0.7071067094802856
            ],
            "scale" : [
                9.999999747378752e-05,
                9.999999747378752e-05,
                9.999999747378752e-05
            ]
        },
        {
            "mesh" : 1,
            "name" : "1_3",
            "rotation" : [
                0.7071068286895752,
                0,
                0,
                0.7071067094802856
            ],
            "scale" : [
                9.999999747378752e-05,
                9.999999747378752e-05,
                9.999999747378752e-05
            ]
        },
        {
            "mesh" : 2,
            "name" : "1_4",
            "rotation" : [
                0.7071068286895752,
                0,
                0,
                0.7071067094802856
            ],
            "scale" : [
                9.999999747378752e-05,
                9.999999747378752e-05,
                9.999999747378752e-05
            ]
        },
        {
            "mesh" : 3,
            "name" : "1_5A",
            "rotation" : [
                0.7071068286895752,
                0,
                0,
                0.7071067094802856
            ],
            "scale" : [
                9.999999747378752e-05,
                9.999999747378752e-05,
                9.999999747378752e-05
            ]
        },
        {
            "mesh" : 4,
            "name" : "1_5B",
            "rotation" : [
                0.7071068286895752,
                0,
                0,
                0.7071067094802856
            ],
            "scale" : [
                9.999999747378752e-05,
                9.999999747378752e-05,
                9.999999747378752e-05
            ]
        },
        {
            "mesh" : 5,
            "name" : "Box001",
            "rotation" : [
                0.7071068286895752,
                0,
                0,
                0.7071067094802856
            ],
            "scale" : [
                9.999999747378752e-05,
                9.999999747378752e-05,
                9.999999747378752e-05
            ]
        },
        {
            "mesh" : 6,
            "name" : "1_2",
            "rotation" : [
                0.7071068286895752,
                0,
                0,
                0.7071067094802856
            ],
            "scale" : [
                9.999999747378752e-05,
                9.999999747378752e-05,
                9.999999747378752e-05
            ]
        }
    ],
    "materials" : [
        {
            "doubleSided" : true,
            "name" : "Default OBJ",
            "pbrMetallicRoughness" : {
                "baseColorFactor" : [
                    0.800000011920929,
                    0.800000011920929,
                    0.800000011920929,
                    1
                ],
                "metallicFactor" : 0,
                "roughnessFactor" : 0.5
            }
        }
    ],
    "meshes" : [
        {
            "name" : "1_1",
            "primitives" : [
                {
                    "attributes" : {
                        "POSITION" : 0,
                        "NORMAL" : 1,
                        "TEXCOORD_0" : 2
                    },
                    "indices" : 3,
                    "material" : 0
                }
            ]
        },
        {
            "name" : "1_3",
            "primitives" : [
                {
                    "attributes" : {
                        "POSITION" : 4,
                        "NORMAL" : 5,
                        "TEXCOORD_0" : 6
                    },
                    "indices" : 7,
                    "material" : 0
                }
            ]
        },
        {
            "name" : "1_4",
            "primitives" : [
                {
                    "attributes" : {
                        "POSITION" : 8,
                        "NORMAL" : 9,
                        "TEXCOORD_0" : 10
                    },
                    "indices" : 11,
                    "material" : 0
                }
            ]
        },
        {
            "name" : "1_5A",
            "primitives" : [
                {
                    "attributes" : {
                        "POSITION" : 12,
                        "NORMAL" : 13,
                        "TEXCOORD_0" : 14
                    },
                    "indices" : 15,
                    "material" : 0
                }
            ]
        },
        {
            "name" : "1_5B",
            "primitives" : [
                {
                    "attributes" : {
                        "POSITION" : 16,
                        "NORMAL" : 17,
                        "TEXCOORD_0" : 18
                    },
                    "indices" : 19,
                    "material" : 0
                }
            ]
        },
        {
            "name" : "Box001",
            "primitives" : [
                {
                    "attributes" : {
                        "POSITION" : 20,
                        "NORMAL" : 21,
                        "TEXCOORD_0" : 22
                    },
                    "indices" : 23,
                    "material" : 0
                }
            ]
        },
        {
            "name" : "1_2",
            "primitives" : [
                {
                    "attributes" : {
                        "POSITION" : 24,
                        "NORMAL" : 25,
                        "TEXCOORD_0" : 26
                    },
                    "indices" : 27,
                    "material" : 0
                }
            ]
        }
    ],
    "accessors" : [
        {
            "bufferView" : 0,
            "componentType" : 5126,
            "count" : 282,
            "max" : [
                67371.3203125,
                30505.00390625,
                -42333.1875
            ],
            "min" : [
                44116.29296875,
                8969.974609375,
                -81893.1875
            ],
            "type" : "VEC3"
        },
        {
            "bufferView" : 1,
            "componentType" : 5126,
            "count" : 282,
            "type" : "VEC3"
        },
        {
            "bufferView" : 2,
            "componentType" : 5126,
            "count" : 282,
            "type" : "VEC2"
        },
        {
            "bufferView" : 3,
            "componentType" : 5123,
            "count" : 486,
            "type" : "SCALAR"
        },
        {
            "bufferView" : 4,
            "componentType" : 5126,
            "count" : 348,
            "max" : [
                35347.16015625,
                30505,
                -60614.19140625
            ],
            "min" : [
                -36012.796875,
                8969.9658203125,
                -83684.1796875
            ],
            "type" : "VEC3"
        },
        {
            "bufferView" : 5,
            "componentType" : 5126,
            "count" : 348,
            "type" : "VEC3"
        },
        {
            "bufferView" : 6,
            "componentType" : 5126,
            "count" : 348,
            "type" : "VEC2"
        },
        {
            "bufferView" : 7,
            "componentType" : 5123,
            "count" : 570,
            "type" : "SCALAR"
        },
        {
            "bufferView" : 8,
            "componentType" : 5126,
            "count" : 235,
            "max" : [
                38960.1796875,
                24089.982421875,
                -92879.734375
            ],
            "min" : [
                7080.203125,
                9539.974609375,
                -113759.765625
            ],
            "type" : "VEC3"
        },
        {
            "bufferView" : 9,
            "componentType" : 5126,
            "count" : 235,
            "type" : "VEC3"
        },
        {
            "bufferView" : 10,
            "componentType" : 5126,
            "count" : 235,
            "type" : "VEC2"
        },
        {
            "bufferView" : 11,
            "componentType" : 5123,
            "count" : 438,
            "type" : "SCALAR"
        },
        {
            "bufferView" : 12,
            "componentType" : 5126,
            "count" : 440,
            "max" : [
                -8252.9501953125,
                24182.47265625,
                -26546.37109375
            ],
            "min" : [
                -37707.484375,
                8879.833984375,
                -47381.3671875
            ],
            "type" : "VEC3"
        },
        {
            "bufferView" : 13,
            "componentType" : 5126,
            "count" : 440,
            "type" : "VEC3"
        },
        {
            "bufferView" : 14,
            "componentType" : 5126,
            "count" : 440,
            "type" : "VEC2"
        },
        {
            "bufferView" : 15,
            "componentType" : 5123,
            "count" : 768,
            "type" : "SCALAR"
        },
        {
            "bufferView" : 16,
            "componentType" : 5126,
            "count" : 416,
            "max" : [
                33679.9453125,
                23963.85546875,
                -26546.37109375
            ],
            "min" : [
                4225.4111328125,
                8661.212890625,
                -47381.3671875
            ],
            "type" : "VEC3"
        },
        {
            "bufferView" : 17,
            "componentType" : 5126,
            "count" : 416,
            "type" : "VEC3"
        },
        {
            "bufferView" : 18,
            "componentType" : 5126,
            "count" : 416,
            "type" : "VEC2"
        },
        {
            "bufferView" : 19,
            "componentType" : 5123,
            "count" : 720,
            "type" : "SCALAR"
        },
        {
            "bufferView" : 20,
            "componentType" : 5126,
            "count" : 24,
            "max" : [
                63019.99609375,
                14766,
                -29513.998046875
            ],
            "min" : [
                44339.73828125,
                10500,
                -35594.00390625
            ],
            "type" : "VEC3"
        },
        {
            "bufferView" : 21,
            "componentType" : 5126,
            "count" : 24,
            "type" : "VEC3"
        },
        {
            "bufferView" : 22,
            "componentType" : 5126,
            "count" : 24,
            "type" : "VEC2"
        },
        {
            "bufferView" : 23,
            "componentType" : 5123,
            "count" : 36,
            "type" : "SCALAR"
        },
        {
            "bufferView" : 24,
            "componentType" : 5126,
            "count" : 958,
            "max" : [
                69670.5703125,
                31092.5625,
                -92087.875
            ],
            "min" : [
                -26379.5,
                8969.974609375,
                -149892.90625
            ],
            "type" : "VEC3"
        },
        {
            "bufferView" : 25,
            "componentType" : 5126,
            "count" : 958,
            "type" : "VEC3"
        },
        {
            "bufferView" : 26,
            "componentType" : 5126,
            "count" : 958,
            "type" : "VEC2"
        },
        {
            "bufferView" : 27,
            "componentType" : 5123,
            "count" : 1614,
            "type" : "SCALAR"
        }
    ],
    "bufferViews" : [
        {
            "buffer" : 0,
            "byteLength" : 3384,
            "byteOffset" : 0
        },
        {
            "buffer" : 0,
            "byteLength" : 3384,
            "byteOffset" : 3384
        },
        {
            "buffer" : 0,
            "byteLength" : 2256,
            "byteOffset" : 6768
        },
        {
            "buffer" : 0,
            "byteLength" : 972,
            "byteOffset" : 9024
        },
        {
            "buffer" : 0,
            "byteLength" : 4176,
            "byteOffset" : 9996
        },
        {
            "buffer" : 0,
            "byteLength" : 4176,
            "byteOffset" : 14172
        },
        {
            "buffer" : 0,
            "byteLength" : 2784,
            "byteOffset" : 18348
        },
        {
            "buffer" : 0,
            "byteLength" : 1140,
            "byteOffset" : 21132
        },
        {
            "buffer" : 0,
            "byteLength" : 2820,
            "byteOffset" : 22272
        },
        {
            "buffer" : 0,
            "byteLength" : 2820,
            "byteOffset" : 25092
        },
        {
            "buffer" : 0,
            "byteLength" : 1880,
            "byteOffset" : 27912
        },
        {
            "buffer" : 0,
            "byteLength" : 876,
            "byteOffset" : 29792
        },
        {
            "buffer" : 0,
            "byteLength" : 5280,
            "byteOffset" : 30668
        },
        {
            "buffer" : 0,
            "byteLength" : 5280,
            "byteOffset" : 35948
        },
        {
            "buffer" : 0,
            "byteLength" : 3520,
            "byteOffset" : 41228
        },
        {
            "buffer" : 0,
            "byteLength" : 1536,
            "byteOffset" : 44748
        },
        {
            "buffer" : 0,
            "byteLength" : 4992,
            "byteOffset" : 46284
        },
        {
            "buffer" : 0,
            "byteLength" : 4992,
            "byteOffset" : 51276
        },
        {
            "buffer" : 0,
            "byteLength" : 3328,
            "byteOffset" : 56268
        },
        {
            "buffer" : 0,
            "byteLength" : 1440,
            "byteOffset" : 59596
        },
        {
            "buffer" : 0,
            "byteLength" : 288,
            "byteOffset" : 61036
        },
        {
            "buffer" : 0,
            "byteLength" : 288,
            "byteOffset" : 61324
        },
        {
            "buffer" : 0,
            "byteLength" : 192,
            "byteOffset" : 61612
        },
        {
            "buffer" : 0,
            "byteLength" : 72,
            "byteOffset" : 61804
        },
        {
            "buffer" : 0,
            "byteLength" : 11496,
            "byteOffset" : 61876
        },
        {
            "buffer" : 0,
            "byteLength" : 11496,
            "byteOffset" : 73372
        },
        {
            "buffer" : 0,
            "byteLength" : 7664,
            "byteOffset" : 84868
        },
        {
            "buffer" : 0,
            "byteLength" : 3228,
            "byteOffset" : 92532
        }
    ],
    "buffers" : [
        {
            "byteLength" : 95760,
            "uri" : "data:application/octet-stream;base64,"
        }
    ]
}
